<svg width="18" height="18" viewBox="0 0 18 18" fill="none" xmlns="http://www.w3.org/2000/svg">
<path d="M7.19817 14.5002C3.33234 14.5002 0.218201 11.3861 0.218201 7.52025C0.218201 3.65442 3.33234 0.540283 7.19817 0.540283C11.064 0.540283 14.1781 3.65442 14.1781 7.52025C14.1781 11.3861 11.064 14.5002 7.19817 14.5002ZM7.19817 1.61412C3.92295 1.61412 1.29204 4.24503 1.29204 7.52025C1.29204 10.7955 3.92295 13.4264 7.19817 13.4264C10.4734 13.4264 13.1043 10.7955 13.1043 7.52025C13.1043 4.24503 10.4734 1.61412 7.19817 1.61412Z" fill="#242222"/>
<path d="M12.3968 11.959L17.2184 16.7805L16.4592 17.5397L11.6376 12.7182L12.3968 11.959Z" fill="#242222"/>
</svg>
